# xmcd
#
# Track frame offsets: 
#        151
#        21752
#        39317
#        54670
#        74472
#        95204
#        111413
#        130839
#        149407
#        169572
#        181945
#        196937
#        208974
#        225511
#
# Disc length: 3181 seconds
#
# Revision: 1
# Processed by: cddbd v1.5.2PL0 Copyright (c) Steve Scherf et al.
# Submitted via: ExactAudioCopyFreeDBPlugin 1.0
#
DISCID=cc0c6b0e
DTITLE=王惠娟 Tiffany Wong - 老情人 Timeless Lovers
DYEAR=1900
DGENRE=Vocal
TTITLE0=老情人
TTITLE1=意難忘
TTITLE2=明月千里寄相思　Let the moon bridge you and I
TTITLE3=哭砂
TTITLE4=玫瑰玫瑰我愛你
TTITLE5=訴衷情
TTITLE6=我只在乎你
TTITLE7=我是不是你疼愛的人　Am I the one you love most ?
TTITLE8=順流逆流　Downstream and against stream 
TTITLE9=康定情歌　The love song of kangding 
TTITLE10=讀你　Reading you 
TTITLE11=被遺忘的時光　Lost memories 
TTITLE12=夢醒時分 When the dream fades 
TTITLE13=籃色的夢 Blue dream 
EXTD=
EXTT0=
EXTT1=
EXTT2=
EXTT3=
EXTT4=
EXTT5=
EXTT6=
EXTT7=
EXTT8=
EXTT9=
EXTT10=
EXTT11=
EXTT12=
EXTT13=
PLAYORDER=
